<?xml version="1.0" encoding="utf-8"?><svg version="1.1" id="Layer_1" xmlns="http://www.w3.org/2000/svg" xmlns:xlink="http://www.w3.org/1999/xlink" x="0px" y="0px" viewBox="0 0 103.12 122.88" style="enable-background:new 0 0 103.12 122.88" xml:space="preserve"><g><path d="M1.18,122.01C0.49,121.69,0,121,0,120.18V2c0-1.1,0.89-2,2-2H21.4h79.72c1.1,0,2,0.89,2,2v107.73 c0,0.11-0.01,0.21-0.02,0.31c-0.28,3.93-1.56,6.99-3.86,9.18c-2.3,2.18-5.53,3.4-9.72,3.64c-0.09,0.01-0.17,0.02-0.26,0.02H2.83 C2.15,122.88,1.54,122.53,1.18,122.01L1.18,122.01z M99.13,109.68V3.99H21.4H3.99v114.9h85.26l0.04,0c3.21-0.18,5.61-1.04,7.2-2.55 C98.06,114.85,98.93,112.62,99.13,109.68L99.13,109.68z M45.26,38.12l3.48,10.24l1.75-6.08l-0.86-0.94 c-0.39-0.56-0.47-1.06-0.26-1.48c0.46-0.92,1.43-0.75,2.33-0.75c0.94,0,2.1-0.18,2.4,1c0.1,0.39-0.03,0.81-0.3,1.23l-0.86,0.94 l1.75,6.08l3.15-10.24c2.28,2.05,9.01,2.46,11.51,3.85c0.79,0.44,1.51,1,2.08,1.76c1.78,2.35,1.77,2.77,2.08,5.72 c-0.13,1.35-0.9,2.13-2.41,2.25H31.99c-1.51-0.12-2.28-0.89-2.41-2.25c0.3-2.95,0.3-3.37,2.08-5.72c0.58-0.76,1.29-1.32,2.08-1.76 C36.26,40.58,42.99,40.16,45.26,38.12L45.26,38.12L45.26,38.12z M43.39,23.41c0.33,0.13,0.68,0.16,1.03,0.09l-0.49-3.93 c0.25-0.97,0.64-1.73,1.16-2.28c0.54-0.58,1.21-0.94,2.02-1.09c1.07-0.08,1.39,0.7,2.45,1.38c3.24,2.07,5.99,2.77,10,2.82 l-0.65,3.29c0.17,0.01,0.35,0.01,0.52-0.01c0.05,0.01,0.1,0.01,0.15,0.01c0.74-0.07,1.19,0.01,1.32,0.28 c0.17,0.34,0.03,1.01-0.43,2.08l-2.2,3.62c-0.82,1.35-1.65,2.7-2.7,3.69c-1.02,0.96-2.28,1.59-4,1.59c-1.59,0-2.79-0.62-3.78-1.52 c-1.03-0.94-1.85-2.21-2.63-3.45l-1.95-3.1h0l-0.01-0.01c-0.61-0.9-0.92-1.69-0.94-2.3c-0.01-0.21,0.03-0.4,0.1-0.56 c0.07-0.14,0.17-0.26,0.31-0.36C42.84,23.53,43.09,23.45,43.39,23.41L43.39,23.41L43.39,23.41z M60.9,22.84l0.12-5.13 c-0.15-2.05-0.82-3.6-1.91-4.77c-2.65-2.87-7.61-3.61-11.35-2.26c-0.63,0.23-1.23,0.52-1.77,0.86c-1.54,0.98-2.79,2.41-3.29,4.19 c-0.12,0.42-0.2,0.84-0.24,1.26c-0.08,1.8-0.03,3.95,0.1,5.64c-0.16,0.06-0.3,0.14-0.44,0.22c-0.29,0.19-0.5,0.45-0.64,0.75 c-0.13,0.29-0.19,0.62-0.18,0.98c0.02,0.78,0.39,1.74,1.09,2.79l1.95,3.09c0.82,1.3,1.67,2.62,2.79,3.64 c1.15,1.05,2.56,1.77,4.42,1.77c2,0.01,3.46-0.73,4.65-1.85c1.15-1.08,2.02-2.48,2.87-3.89l2.22-3.65 c0.01-0.02,0.02-0.04,0.03-0.05l0,0c0.6-1.35,0.73-2.29,0.42-2.9C61.57,23.2,61.29,22.97,60.9,22.84L60.9,22.84L60.9,22.84z M70.47,108.18c-1.09,0-1.98-0.89-1.98-2c0-1.1,0.88-2,1.98-2h16.68c1.09,0,1.98,0.89,1.98,2c0,1.1-0.88,2-1.98,2H70.47 L70.47,108.18z M16.82,93.62c-1.09,0-1.98-0.89-1.98-2c0-1.1,0.88-2,1.98-2h70.5c1.09,0,1.98,0.89,1.98,2c0,1.1-0.88,2-1.98,2 H16.82L16.82,93.62z M17.14,79.06c-1.09,0-1.98-0.89-1.98-2c0-1.1,0.88-2,1.98-2h70c1.09,0,1.98,0.89,1.98,2c0,1.1-0.88,2-1.98,2 H17.14L17.14,79.06z M16.82,64.5c-1.09,0-1.98-0.89-1.98-2c0-1.1,0.88-2,1.98-2h30.13c1.09,0,1.98,0.89,1.98,2c0,1.1-0.88,2-1.98,2 H16.82L16.82,64.5z M54.64,64.5c-1.09,0-1.98-0.89-1.98-2c0-1.1,0.88-2,1.98-2h32.5c1.09,0,1.98,0.89,1.98,2c0,1.1-0.88,2-1.98,2 H54.64L54.64,64.5z"/></g></svg>