<svg width="50" height="50" viewBox="0 0 50 50" fill="none" xmlns="http://www.w3.org/2000/svg">
<path d="M24.7884 0.0140991C12.1269 0.0140991 12.9175 5.52684 12.9175 5.52684L12.9315 11.2382H25.0142V12.9529H8.1325C8.1325 12.9529 0.0303955 12.0304 0.0303955 24.8568C0.0303955 37.6837 7.10211 37.2288 7.10211 37.2288H11.3225V31.2766C11.3225 31.2766 11.095 24.1766 18.2813 24.1766H30.2651C30.2651 24.1766 36.998 24.2859 36.998 17.6435V6.66077C36.998 6.66077 38.0206 0.0140991 24.7884 0.0140991ZM18.1261 3.85488C18.4116 3.85463 18.6943 3.9109 18.9582 4.02048C19.222 4.13006 19.4617 4.2908 19.6636 4.4935C19.8655 4.69621 20.0256 4.93689 20.1348 5.20178C20.2439 5.46667 20.3 5.75057 20.2997 6.03724C20.3 6.3239 20.2439 6.6078 20.1348 6.87269C20.0256 7.13758 19.8655 7.37827 19.6636 7.58097C19.4617 7.78367 19.222 7.94441 18.9582 8.05399C18.6943 8.16358 18.4116 8.21985 18.1261 8.21959C17.8405 8.21985 17.5578 8.16358 17.2939 8.05399C17.0301 7.94441 16.7904 7.78367 16.5885 7.58097C16.3866 7.37827 16.2265 7.13758 16.1173 6.87269C16.0082 6.6078 15.9521 6.3239 15.9524 6.03724C15.9521 5.75057 16.0082 5.46667 16.1173 5.20178C16.2265 4.93689 16.3866 4.69621 16.5885 4.4935C16.7904 4.2908 17.0301 4.13006 17.2939 4.02048C17.5578 3.9109 17.8405 3.85463 18.1261 3.85488Z" fill="url(#paint0_linear)"/>
<path d="M25.1478 49.8286C37.8094 49.8286 37.0188 44.3159 37.0188 44.3159L37.0047 38.6047H24.9219V36.89H41.8036C41.8036 36.89 49.9057 37.8126 49.9057 24.9857C49.9057 12.159 42.834 12.6139 42.834 12.6139H38.6136V18.5659C38.6136 18.5659 38.8411 25.6659 31.6548 25.6659H19.6709C19.6709 25.6659 12.9381 25.5567 12.9381 32.1992V43.1822C12.9381 43.1822 11.9157 49.8286 25.1476 49.8286H25.1478ZM31.8102 45.9882C31.5247 45.9885 31.2419 45.9322 30.9781 45.8227C30.7143 45.7131 30.4745 45.5523 30.2726 45.3496C30.0707 45.1469 29.9106 44.9062 29.8015 44.6413C29.6923 44.3765 29.6363 44.0926 29.6366 43.8059C29.6363 43.5192 29.6923 43.2353 29.8014 42.9704C29.9106 42.7055 30.0707 42.4648 30.2726 42.262C30.4745 42.0593 30.7142 41.8986 30.978 41.789C31.2419 41.6794 31.5247 41.6231 31.8102 41.6233C32.0957 41.6231 32.3785 41.6794 32.6423 41.7889C32.9062 41.8985 33.1459 42.0593 33.3478 42.262C33.5497 42.4647 33.7098 42.7054 33.8189 42.9702C33.9281 43.2351 33.9841 43.519 33.9839 43.8057C33.9841 44.0924 33.9281 44.3763 33.8189 44.6412C33.7098 44.906 33.5497 45.1467 33.3478 45.3494C33.1459 45.5521 32.9062 45.7129 32.6423 45.8225C32.3785 45.932 32.0957 45.9883 31.8102 45.9881V45.9882Z" fill="url(#paint1_linear)"/>
<defs>
<linearGradient id="paint0_linear" x1="4.8234" y1="4.49462" x2="29.6378" y2="28.9636" gradientUnits="userSpaceOnUse">
<stop stop-color="#387EB8"/>
<stop offset="1" stop-color="#366994"/>
</linearGradient>
<linearGradient id="paint1_linear" x1="19.9944" y1="20.2708" x2="46.6373" y2="45.3568" gradientUnits="userSpaceOnUse">
<stop stop-color="#FFE052"/>
<stop offset="1" stop-color="#FFC331"/>
</linearGradient>
</defs>
</svg>
